<?xml version="1.0" standalone="no"?>
<!DOCTYPE svg PUBLIC "-//W3C//DTD SVG 20010904//EN"
 "http://www.w3.org/TR/2001/REC-SVG-20010904/DTD/svg10.dtd">
<svg version="1.0" xmlns="http://www.w3.org/2000/svg"
 width="932.000000pt" height="1280.000000pt" viewBox="0 0 932.000000 1280.000000"
 preserveAspectRatio="xMidYMid meet">
<g transform="translate(0.000000,1280.000000) scale(0.100000,-0.100000)"
fill="#000000" stroke="none">
<path d="M4219 12796 c-2 -3 -94 -16 -204 -31 -551 -71 -928 -145 -1046 -205
-21 -11 -39 -25 -39 -30 0 -24 -82 -50 -188 -59 -175 -16 -343 -66 -523 -156
-247 -124 -349 -233 -399 -430 -25 -99 -74 -420 -102 -675 -30 -272 -33 -746
-6 -852 97 -378 485 -671 1024 -772 44 -8 114 -26 156 -40 104 -35 183 -34
407 4 36 6 95 32 171 74 64 36 153 77 197 92 l80 28 68 -22 c78 -26 125 -23
220 13 33 13 87 29 120 35 77 15 150 51 198 98 45 43 59 67 107 187 20 50 41
90 46 89 29 -2 140 -313 198 -554 19 -80 65 -309 102 -510 l67 -365 0 -315 c0
-254 -8 -445 -41 -980 -49 -784 -50 -801 -62 -1084 -8 -180 -13 -223 -27 -238
-9 -10 -21 -18 -27 -18 -7 0 -41 35 -76 77 -334 398 -546 517 -1039 583 -416
55 -673 2 -973 -199 -137 -92 -224 -166 -466 -394 -112 -106 -246 -231 -297
-279 l-94 -87 -153 74 c-177 85 -353 151 -743 280 -336 111 -589 185 -662 192
-50 5 -83 -5 -83 -28 0 -11 88 -42 282 -98 231 -67 364 -113 641 -225 127 -51
285 -112 350 -136 l118 -42 63 -92 c167 -240 261 -466 297 -708 6 -43 13 -77
15 -75 2 2 22 68 45 148 193 686 550 1203 994 1444 154 83 346 135 500 135
141 0 417 -66 562 -135 112 -53 153 -80 313 -210 69 -56 147 -117 174 -136 34
-23 73 -70 130 -152 119 -174 122 -179 172 -337 60 -186 103 -291 171 -415 73
-131 97 -165 293 -407 261 -323 401 -457 555 -533 80 -40 285 -94 460 -121
169 -27 608 -27 775 -1 358 56 705 181 952 342 208 137 313 278 222 301 -14 4
-58 4 -97 0 -345 -31 -527 -9 -776 95 -210 87 -375 203 -587 414 -226 226
-383 438 -569 769 -553 982 -861 2484 -705 3430 11 65 20 156 20 203 0 76 2
86 25 108 30 31 37 31 100 1 61 -28 162 -109 315 -252 115 -107 185 -164 202
-164 16 0 -1 57 -52 174 -107 251 -152 329 -440 766 -126 190 -260 401 -298
470 -147 260 -188 310 -260 310 -48 0 -102 -60 -204 -230 -48 -80 -107 -174
-132 -209 -25 -36 -46 -71 -46 -78 0 -25 -71 -92 -108 -103 -56 -15 -96 -12
-214 16 -60 14 -116 23 -124 20 -22 -8 -9 -41 36 -96 20 -25 59 -77 85 -117
l48 -72 -36 -76 c-20 -41 -48 -91 -62 -109 -41 -53 -227 -165 -257 -154 -7 3
-23 39 -35 81 -13 41 -67 189 -122 328 -54 140 -113 300 -130 356 -29 91 -37
106 -81 147 -46 44 -136 106 -151 106 -4 0 -15 -7 -23 -16 -24 -24 -20 -91 20
-279 19 -93 46 -222 59 -286 38 -181 41 -256 15 -378 -24 -117 -41 -157 -70
-166 -112 -36 -252 370 -340 985 -65 452 -111 585 -226 641 -61 29 -123 22
-212 -26 -110 -59 -116 -66 -109 -133 3 -31 22 -113 41 -182 116 -407 155
-587 158 -730 2 -146 -16 -408 -30 -422 -43 -43 -115 127 -163 387 -11 61 -29
151 -40 200 -10 50 -28 160 -39 245 -64 488 -113 696 -210 890 -36 72 -123
200 -136 200 -4 0 -27 -15 -53 -34 -64 -47 -129 -78 -154 -74 -19 3 -23 12
-31 77 -14 120 3 172 78 246 43 43 85 73 146 102 141 68 369 134 535 154 99
12 137 24 161 50 36 40 118 71 303 114 519 121 895 171 1120 147 159 -16 382
-77 656 -179 242 -90 360 -152 454 -239 82 -75 123 -145 242 -405 56 -123 206
-447 334 -719 128 -272 247 -531 264 -575 21 -52 53 -108 94 -160 86 -109 202
-277 477 -690 128 -192 385 -575 570 -850 419 -621 514 -768 649 -1009 60
-105 134 -234 166 -286 352 -580 595 -1281 685 -1980 38 -294 82 -479 163
-675 82 -201 107 -315 107 -484 0 -128 -9 -166 -54 -216 -19 -21 -38 -50 -41
-64 -4 -14 -46 -79 -95 -145 -197 -270 -322 -372 -570 -464 -289 -108 -657
-181 -1095 -218 -240 -19 -802 -22 -1040 -5 -454 33 -874 102 -1099 180 -33
12 -61 20 -63 18 -2 -2 50 -51 114 -108 510 -452 567 -507 645 -622 80 -118
140 -291 154 -447 6 -65 6 -67 -17 -73 -130 -32 -1313 -45 -1694 -19 -801 55
-1306 152 -1654 318 -135 64 -219 122 -289 199 -57 62 -62 82 -37 143 60 143
188 226 640 417 423 179 599 267 792 397 262 177 448 392 554 638 40 92 83
233 77 250 -2 5 -52 -53 -113 -128 -131 -162 -349 -389 -460 -479 -376 -303
-794 -442 -1211 -403 -395 36 -780 187 -1214 475 -135 90 -214 125 -385 173
-222 62 -412 92 -591 92 -181 0 -254 -33 -254 -117 0 -54 17 -89 86 -174 82
-103 216 -221 452 -398 67 -50 122 -96 122 -100 0 -19 -84 -114 -146 -165 -61
-50 -131 -92 -399 -238 -195 -106 -270 -183 -311 -317 l-26 -84 6 -1221 c7
-1330 10 -1491 32 -1520 13 -19 16 -18 69 18 70 49 155 148 259 306 82 122
151 248 352 635 l99 190 100 -3 c186 -4 488 -50 1045 -158 641 -124 639 -124
942 -124 538 0 1132 75 1628 206 457 121 951 305 1425 533 409 196 638 326
1055 601 258 169 414 267 600 375 36 21 162 88 280 150 118 61 258 138 310
170 325 202 689 545 877 825 126 188 201 407 240 709 11 83 -34 281 -105 467
-88 226 -134 420 -177 739 -91 671 -334 1353 -695 1950 -40 66 -109 185 -153
264 -104 189 -200 340 -490 771 -132 195 -458 684 -727 1086 -553 828 -524
778 -940 1654 -341 719 -436 890 -542 985 -136 119 -699 345 -1022 410 -114
22 -235 33 -247 21z m-2148 -1852 c40 -512 42 -577 16 -617 -21 -33 -32 -34
-52 -3 -26 40 -45 155 -51 316 -7 170 4 275 36 348 28 64 44 50 51 -44z"/>
</g>
</svg>
